<?xml version="1.0" encoding="UTF-8"?>
<svg version="1.1" xmlns="http://www.w3.org/2000/svg" width="467" height="365">
<path d="M0 0 C154.11 0 308.22 0 467 0 C467 120.45 467 240.9 467 365 C312.89 365 158.78 365 0 365 C0 244.55 0 124.1 0 0 Z " fill="#FEFDF9" transform="translate(0,0)"/>
<path d="M0 0 C6.83763816 5.72128907 12.98340189 11.77153874 18.8046875 18.51953125 C22.30333468 22.47262905 25.92687235 26.30802417 29.53564453 30.16040039 C33.35408571 34.23665419 37.15581372 38.3271389 40.9375 42.4375 C46.06915219 48.01095577 51.24857445 53.53859338 56.43554688 59.06054688 C60.77138012 63.6798258 65.07648328 68.32586899 69.36450195 72.98950195 C73.60273384 77.58969793 77.89357395 82.13932506 82.1875 86.6875 C87.02883697 91.81683099 91.8182815 96.97782895 96.5 102.25390625 C98.65908843 104.62552995 100.8499421 106.95586456 103.0625 109.27734375 C103.79146484 110.04369141 104.52042969 110.81003906 105.27148438 111.59960938 C106.73737278 113.13744322 108.20732219 114.67141801 109.68164062 116.20117188 C110.35388672 116.90693359 111.02613281 117.61269531 111.71875 118.33984375 C112.32654297 118.97269287 112.93433594 119.60554199 113.56054688 120.25756836 C115 122 115 122 116 125 C109.93550231 125.27393492 103.87467312 125.47242239 97.80541992 125.60424805 C95.74586203 125.65924055 93.68672717 125.73406801 91.62866211 125.82983398 C73.60270165 126.64701086 73.60270165 126.64701086 68.25927734 122.65185547 C65.43459551 120.06340477 63.20864564 117.12825481 61 114 C59.76447564 112.57069107 58.51758323 111.15095582 57.25 109.75 C56.70859375 109.11578125 56.1671875 108.4815625 55.609375 107.828125 C53.46489498 105.39216226 51.15756548 103.14517137 48.84204102 100.87329102 C47.06818863 99.06934544 45.41036475 97.21134396 43.76171875 95.29296875 C40.05284026 91.02751351 36.20268209 86.91229268 32.3125 82.8125 C27.47257377 77.69148102 22.64538706 72.56090903 17.875 67.375 C11.90421565 60.88694973 5.89243229 54.43784507 -0.13085938 47.99853516 C-1.42164384 46.61839388 -2.71198043 45.23783363 -4.00195312 43.85693359 C-6.02121985 41.69543103 -8.04170533 39.53507405 -10.0625 37.375 C-10.99122925 36.38052856 -10.99122925 36.38052856 -11.9387207 35.3659668 C-15.23378111 31.84723731 -18.56857631 28.38601733 -22 25 C-20.62001017 21.92632841 -19.01432115 19.72436724 -16.69921875 17.28515625 C-16.05146484 16.59873047 -15.40371094 15.91230469 -14.73632812 15.20507812 C-14.06021484 14.49802734 -13.38410156 13.79097656 -12.6875 13.0625 C-12.02298828 12.35931641 -11.35847656 11.65613281 -10.67382812 10.93164062 C-7.16891895 7.23259207 -3.62421971 3.58215913 0 0 Z " fill="#030303" transform="translate(258,160)"/>
<path d="M0 0 C3.04393367 1.34954763 5.02721688 2.82156266 7.27734375 5.265625 C8.17163086 6.23048828 8.17163086 6.23048828 9.08398438 7.21484375 C10.00147461 8.22224609 10.00147461 8.22224609 10.9375 9.25 C11.54529297 9.90613281 12.15308594 10.56226563 12.77929688 11.23828125 C16.30680022 15.06640246 19.70343441 18.97155932 23 23 C21.5158627 26.48654476 19.53785948 28.64191072 16.8125 31.25 C13.28548426 34.6349468 10.06523704 38.18625858 6.86743164 41.87646484 C3.77133692 45.39716452 0.53921517 48.78688054 -2.6875 52.1875 C-7.56750518 57.35151472 -12.4364582 62.52391495 -17.25 67.75 C-17.73130371 68.27255371 -18.21260742 68.79510742 -18.70849609 69.33349609 C-20.13957385 70.88846831 -21.5698544 72.44417047 -23 74 C-29.48728515 81.0527414 -36.00152681 88.07818488 -42.5625 95.0625 C-47.82333553 100.66450688 -53.05315248 106.29238769 -58.2421875 111.9609375 C-58.67635986 112.40614746 -59.11053223 112.85135742 -59.55786133 113.31005859 C-61.13241753 115.05741879 -61.13241753 115.05741879 -62.51049805 117.55322266 C-65.15431609 121.45763027 -67.52555011 124.44352946 -72.3137207 125.52032471 C-79.22009207 126.26386813 -86.13756035 125.90878706 -93.0625 125.625 C-95.18934868 125.57478881 -97.31631105 125.5291703 -99.44335938 125.48828125 C-104.63173109 125.37858506 -109.81460899 125.20633634 -115 125 C-114.06432263 123.72988459 -113.12546361 122.46211273 -112.18530273 121.1953125 C-111.66282455 120.48906738 -111.14034637 119.78282227 -110.60203552 119.05517578 C-108.31526742 116.12158889 -105.74579139 113.56693316 -103.0625 111 C-99.10327934 107.18236736 -95.41200885 103.2323675 -91.81469727 99.07080078 C-88.77985691 95.60766128 -85.60561206 92.27834679 -82.4375 88.9375 C-81.02187522 87.43904786 -79.60651555 85.94034522 -78.19140625 84.44140625 C-77.13590576 83.32403076 -77.13590576 83.32403076 -76.05908203 82.18408203 C-72.98643056 78.92490014 -69.92925549 75.65141472 -66.875 72.375 C-66.30724854 71.76599854 -65.73949707 71.15699707 -65.15454102 70.52954102 C-64.01180764 69.30361704 -62.86914787 68.07762443 -61.7265625 66.8515625 C-59.96485513 64.9623107 -58.20143131 63.07467542 -56.4375 61.1875 C-50.96186004 55.32828805 -45.49480097 49.46193871 -40.0625 43.5625 C-35.56893474 38.68252133 -31.04133073 33.83554322 -26.5 29 C-13.03317263 14.69651343 -13.03317263 14.69651343 0 0 Z " fill="#030303" transform="translate(200,160)"/>
<path d="M0 0 C6.20685329 -0.29875628 12.40944864 -0.51531915 18.62182617 -0.65917969 C20.72999011 -0.71918711 22.8376617 -0.8008305 24.9440918 -0.90527344 C43.40679767 -1.79714935 43.40679767 -1.79714935 48.7565918 2.55981445 C51.60533029 5.41215735 53.79469144 8.62985134 56 12 C57.36832234 13.5866477 58.75962858 15.15422241 60.1875 16.6875 C60.91066406 17.49316406 61.63382813 18.29882812 62.37890625 19.12890625 C67.81007921 25.07810465 73.36524541 30.91263093 78.89501953 36.77001953 C82.28772234 40.36419112 85.67696503 43.96157629 89.0625 47.5625 C89.95412842 48.50730225 89.95412842 48.50730225 90.86376953 49.47119141 C93.86719811 52.66746193 96.80691581 55.90371937 99.68359375 59.21484375 C102.03224246 61.91701728 104.42270894 64.51158105 107 67 C110.14578336 70.10375954 113.07294016 73.31876298 115.953125 76.66796875 C118.58166631 79.66269997 121.28925221 82.57977017 124 85.5 C128.41753485 90.26231136 132.76962096 95.06952302 137 100 C135.58261511 103.25207092 133.87473588 105.31361067 131.3125 107.75 C127.86512015 111.10353104 124.67800776 114.58998182 121.54296875 118.234375 C119.78203656 120.24941639 117.93026669 122.14694398 116 124 C113.03957295 122.67789474 111.07693132 121.28756353 108.890625 118.90234375 C108.30877441 118.27408691 107.72692383 117.64583008 107.12744141 116.99853516 C106.50788574 116.31839355 105.88833008 115.63825195 105.25 114.9375 C103.90921591 113.485343 102.56805725 112.03353177 101.2265625 110.58203125 C100.53336914 109.82873535 99.84017578 109.07543945 99.12597656 108.29931641 C95.65574687 104.54614424 92.13736254 100.83868697 88.625 97.125 C83.6541317 91.85754052 78.76042583 86.53904309 73.9453125 81.12890625 C71.34963211 78.28825201 68.61393434 75.60383173 65.875 72.90234375 C64.13121269 71.13312621 62.49454041 69.32021573 60.875 67.4375 C53.81464209 59.24557232 46.27199833 51.46563018 38.8515625 43.6015625 C37.46350109 42.13024662 36.07548002 40.65889267 34.6875 39.1875 C34.00824463 38.46771973 33.32898926 37.74793945 32.62915039 37.00634766 C28.32938998 32.44051948 24.11494369 27.81379605 19.9453125 23.12890625 C17.97998629 20.97809745 15.94873211 18.92113492 13.875 16.875 C8.56795023 11.63150771 3.80054611 6.43825336 0 0 Z " fill="#030303" transform="translate(86,22)"/>
<path d="M0 0 C2.10392632 0.07539502 4.20811494 0.14380915 6.3125 0.20507812 C11.42324756 0.36889237 16.52117026 0.62667964 21.625 0.9375 C20.67750991 2.04658853 19.72948946 3.15522398 18.78125 4.26367188 C18.25337891 4.88109253 17.72550781 5.49851318 17.18164062 6.13464355 C15.042331 8.61233049 12.8406566 11.02797345 10.625 13.4375 C10.16279053 13.94031494 9.70058105 14.44312988 9.22436523 14.96118164 C4.80421723 19.76092947 0.34908305 24.52801143 -4.10693359 29.29443359 C-9.89103573 35.4829963 -15.63616496 41.70698432 -21.375 47.9375 C-28.27889439 55.4328927 -35.20510524 62.90629128 -42.16357422 70.35107422 C-45.91500059 74.36684553 -49.65170869 78.39563831 -53.375 82.4375 C-57.68986968 87.12155639 -62.02636321 91.78477935 -66.375 96.4375 C-75.47675877 106.17991048 -84.57449034 115.9204493 -93.375 125.9375 C-98.62177822 121.65441574 -103.01431098 117.1067936 -107.375 111.9375 C-108.64178922 110.4548684 -109.91252201 108.97559565 -111.1875 107.5 C-111.75082031 106.84128906 -112.31414062 106.18257813 -112.89453125 105.50390625 C-114.30969208 103.82730014 -114.30969208 103.82730014 -116.375 102.9375 C-115.03500502 99.930682 -113.57654709 97.93987391 -111.1875 95.6875 C-108.66849815 93.30418209 -106.36150734 90.80389571 -104.08984375 88.1875 C-100.53304818 84.09102338 -96.85148396 80.12935936 -93.125 76.1875 C-88.45793101 71.22775927 -83.79768199 66.26273427 -79.1875 61.25 C-78.34832031 60.33863281 -77.50914062 59.42726562 -76.64453125 58.48828125 C-74.32602687 55.94406043 -74.32602687 55.94406043 -72.19921875 53.10546875 C-71.59722656 52.39003906 -70.99523437 51.67460938 -70.375 50.9375 C-69.715 50.9375 -69.055 50.9375 -68.375 50.9375 C-67.99408203 50.06351563 -67.99408203 50.06351563 -67.60546875 49.171875 C-66.24179667 46.69561967 -64.73274797 45.13229374 -62.6875 43.1875 C-59.93268063 40.5072696 -57.31575141 37.79168433 -54.8125 34.875 C-52.58855559 32.28796262 -50.30889732 29.82803167 -47.875 27.4375 C-45.58173964 25.17952057 -43.41071972 22.87753496 -41.3125 20.4375 C-40.74998535 19.81689697 -40.1874707 19.19629395 -39.60791016 18.55688477 C-37.85054922 16.49535782 -36.31175827 14.45201214 -34.74975586 12.24975586 C-24.85758628 -0.83964313 -15.61089531 -0.97968596 0 0 Z " fill="#030302" transform="translate(352.375,21.0625)"/>
<path d="M0 0 C1.234375 1.22265625 1.234375 1.22265625 2.75 3.0625 C6.51504619 7.50188282 10.45798003 11.7538782 14.4375 16 C15.07719727 16.68328369 15.71689453 17.36656738 16.37597656 18.07055664 C17.91628613 19.71467692 19.45759435 21.35784634 21 23 C19.20992613 26.83419307 16.76180956 29.63702803 13.875 32.6875 C12.88614716 33.74816531 11.89787134 34.80936886 10.91015625 35.87109375 C10.17563232 36.65782471 10.17563232 36.65782471 9.42626953 37.46044922 C6.22290266 40.91824304 3.11637267 44.4639439 0 48 C-7.26518991 44.81040443 -12.40855427 37.67389957 -17.453125 31.75 C-19.08190819 29.84040633 -19.08190819 29.84040633 -21.5 27.75 C-21.995 27.1725 -22.49 26.595 -23 26 C-22.40687828 21.49421582 -19.47132782 18.95149684 -16.4375 15.8125 C-15.34420212 14.65965964 -14.25175746 13.50600954 -13.16015625 12.3515625 C-12.62277832 11.78598633 -12.08540039 11.22041016 -11.53173828 10.63769531 C-8.7659062 7.68053853 -6.14708708 4.59478376 -3.5234375 1.51171875 C-2 0 -2 0 0 0 Z " fill="#040404" transform="translate(231,129)"/>
<path d="M0 0 C1.32 0 2.64 0 4 0 C6.42741786 3.11778441 8.08893392 6.5253344 10 10 C13.465 5.05 13.465 5.05 17 0 C17.99 0.33 18.98 0.66 20 1 C19.20722656 2.21236328 19.20722656 2.21236328 18.3984375 3.44921875 C17.73070312 4.51785156 17.06296875 5.58648437 16.375 6.6875 C15.70210937 7.74324219 15.02921875 8.79898437 14.3359375 9.88671875 C12.69238163 12.8597084 12.69238163 12.8597084 13.625 15.59375 C14.07875 16.3878125 14.5325 17.181875 15 18 C15.42539063 18.81082031 15.85078125 19.62164062 16.2890625 20.45703125 C16.72992188 21.23433594 17.17078125 22.01164062 17.625 22.8125 C18.07101563 23.60269531 18.51703125 24.39289063 18.9765625 25.20703125 C19.31429687 25.79871094 19.65203125 26.39039063 20 27 C22.33086556 24.66913444 23.19738145 22.60308031 24.53125 19.58984375 C25.01207031 18.51798828 25.49289063 17.44613281 25.98828125 16.34179688 C26.99754286 14.06900232 28.00535161 11.79556205 29.01171875 9.52148438 C29.49253906 8.45091797 29.97335937 7.38035156 30.46875 6.27734375 C30.90638672 5.28984131 31.34402344 4.30233887 31.79492188 3.28491211 C33 1 33 1 35 0 C39.29 9.24 43.58 18.48 48 28 C47.01 28.33 46.02 28.66 45 29 C44.32845067 27.71086513 43.66291141 26.41859796 43 25.125 C42.62875 24.40570313 42.2575 23.68640625 41.875 22.9453125 C41 21 41 21 41 19 C34.565 19.495 34.565 19.495 28 20 C26.02 24.455 26.02 24.455 24 29 C20.875 29.625 20.875 29.625 17 29 C14.51150717 25.91140603 12.79471098 22.52317423 11 19 C10.67 18.67 10.34 18.34 10 18 C9.29423828 19.19109375 9.29423828 19.19109375 8.57421875 20.40625 C7.95160156 21.4271875 7.32898438 22.448125 6.6875 23.5 C6.07261719 24.5209375 5.45773438 25.541875 4.82421875 26.59375 C4.22222656 27.3878125 3.62023437 28.181875 3 29 C2.01 29 1.02 29 0 29 C1.42540678 24.8533621 3.54297956 21.59910462 6.07421875 18.0625 C7.33791862 15.24716865 6.9340812 13.92009495 6 11 C5.04085627 9.03123129 4.0166077 7.09315829 2.9375 5.1875 C2.38964844 4.21167969 1.84179688 3.23585938 1.27734375 2.23046875 C0.85582031 1.49441406 0.43429688 0.75835937 0 0 Z " fill="#383735" transform="translate(228,255)"/>
<path d="M0 0 C12 0 12 0 17 3 C18 4 18 4 18.25 7.875 C18.2020808 11.70169024 18.2020808 11.70169024 16.6875 13.9375 C13.55693126 15.90859884 10.90698862 16.11459404 7.3125 16.0625 C5.1778125 16.0315625 5.1778125 16.0315625 3 16 C3 20.29 3 24.58 3 29 C2.01 29 1.02 29 0 29 C0 19.43 0 9.86 0 0 Z " fill="#383734" transform="translate(201,255)"/>
<path d="M0 0 C1.32 0 2.64 0 4 0 C6.42741786 3.11778441 8.08893392 6.5253344 10 10 C13.465 5.05 13.465 5.05 17 0 C17.99 0.33 18.98 0.66 20 1 C19.20722656 2.21236328 19.20722656 2.21236328 18.3984375 3.44921875 C17.73070312 4.51785156 17.06296875 5.58648437 16.375 6.6875 C15.70210937 7.74324219 15.02921875 8.79898437 14.3359375 9.88671875 C12.69238163 12.8597084 12.69238163 12.8597084 13.625 15.59375 C14.07875 16.3878125 14.5325 17.181875 15 18 C15.42539063 18.81082031 15.85078125 19.62164062 16.2890625 20.45703125 C16.72992188 21.23433594 17.17078125 22.01164062 17.625 22.8125 C18.07101563 23.60269531 18.51703125 24.39289063 18.9765625 25.20703125 C19.31429687 25.79871094 19.65203125 26.39039063 20 27 C21.65 25.68 23.3 24.36 25 23 C24.67 24.98 24.34 26.96 24 29 C20.875 29.625 20.875 29.625 17 29 C14.51150717 25.91140603 12.79471098 22.52317423 11 19 C10.67 18.67 10.34 18.34 10 18 C9.29423828 19.19109375 9.29423828 19.19109375 8.57421875 20.40625 C7.95160156 21.4271875 7.32898438 22.448125 6.6875 23.5 C6.07261719 24.5209375 5.45773438 25.541875 4.82421875 26.59375 C4.22222656 27.3878125 3.62023437 28.181875 3 29 C2.01 29 1.02 29 0 29 C1.42540678 24.8533621 3.54297956 21.59910462 6.07421875 18.0625 C7.33791862 15.24716865 6.9340812 13.92009495 6 11 C5.04085627 9.03123129 4.0166077 7.09315829 2.9375 5.1875 C2.38964844 4.21167969 1.84179688 3.23585938 1.27734375 2.23046875 C0.85582031 1.49441406 0.43429688 0.75835937 0 0 Z " fill="#343330" transform="translate(228,255)"/>
<path d="M0 0 C1.60875 -0.04125 3.2175 -0.0825 4.875 -0.125 C5.77992188 -0.14820313 6.68484375 -0.17140625 7.6171875 -0.1953125 C10 0 10 0 12 2 C12.25 5 12.25 5 12 8 C10 10 10 10 7.6171875 10.1953125 C6.71226562 10.17210937 5.80734375 10.14890625 4.875 10.125 C2.461875 10.063125 2.461875 10.063125 0 10 C0 6.7 0 3.4 0 0 Z " fill="#F6F6F3" transform="translate(204,258)"/>
<path d="M0 0 C0.99 0 1.98 0 3 0 C3 9.57 3 19.14 3 29 C2.01 29 1.02 29 0 29 C0 19.43 0 9.86 0 0 Z " fill="#3C3B38" transform="translate(222,255)"/>
<path d="M0 0 C3 1 3 1 4.60546875 3.94140625 C5.12753906 5.13636719 5.64960938 6.33132813 6.1875 7.5625 C6.71730469 8.76003906 7.24710937 9.95757812 7.79296875 11.19140625 C8.19128906 12.11824219 8.58960938 13.04507812 9 14 C8.01 14.33 7.02 14.66 6 15 C5.32845067 13.71086513 4.66291141 12.41859796 4 11.125 C3.62875 10.40570313 3.2575 9.68640625 2.875 8.9453125 C2 7 2 7 2 5 C-2.62 5.33 -7.24 5.66 -12 6 C-11.67 4.35 -11.34 2.7 -11 1 C-10.67 1.66 -10.34 2.32 -10 3 C-6.7 3 -3.4 3 0 3 C0 2.01 0 1.02 0 0 Z " fill="#222222" transform="translate(267,269)"/>
<path d="M0 0 C12.17760618 -0.44015444 12.17760618 -0.44015444 16 3 C16.33 3.99 16.66 4.98 17 6 C16.34 6 15.68 6 15 6 C14.67 7.32 14.34 8.64 14 10 C13.34 8.02 12.68 6.04 12 4 C8.7 3.67 5.4 3.34 2 3 C1.67 6.3 1.34 9.6 1 13 C0.67 13 0.34 13 0 13 C0 8.71 0 4.42 0 0 Z " fill="#31302F" transform="translate(202,255)"/>
<path d="M0 0 C2.64465038 3.1254959 3.84414715 6.08788267 5 10 C2.03 10 -0.94 10 -4 10 C-3.43454163 6.04179141 -2.19097652 3.3340947 0 0 Z " fill="#E8E7E5" transform="translate(262,261)"/>
<path d="M0 0 C1.32 0 2.64 0 4 0 C5.921875 2.625 5.921875 2.625 7.75 6 C8.36359375 7.11375 8.9771875 8.2275 9.609375 9.375 C10.29773438 10.674375 10.29773438 10.674375 11 12 C10.01 12.99 9.02 13.98 8 15 C7.04078278 13.25048432 6.08266183 11.50036756 5.125 9.75 C4.59132812 8.77546875 4.05765625 7.8009375 3.5078125 6.796875 C2.29580534 4.54869592 1.12452433 2.2927195 0 0 Z " fill="#333230" transform="translate(228,255)"/>
<path d="M0 0 C0.99 0.66 1.98 1.32 3 2 C1.90902202 3.84121215 0.80180749 5.67281256 -0.3125 7.5 C-1.23482422 9.03140625 -1.23482422 9.03140625 -2.17578125 10.59375 C-2.77777344 11.3878125 -3.37976563 12.181875 -4 13 C-4.99 13 -5.98 13 -7 13 C-5.35821735 8.22390502 -2.73453298 4.20617096 0 0 Z " fill="#33322E" transform="translate(235,271)"/>
<path d="M0 0 C0.66 0.33 1.32 0.66 2 1 C-3.05352742 6.96348734 -8.41711741 12.53105379 -14 18 C-14.66 17.67 -15.32 17.34 -16 17 C-15.43152344 16.443125 -14.86304688 15.88625 -14.27734375 15.3125 C-9.29146714 10.38488906 -4.53204946 5.34810981 0 0 Z " fill="#262625" transform="translate(229,129)"/>
<path d="M0 0 C2.64 0 5.28 0 8 0 C8 0.66 8 1.32 8 2 C6.02 2 4.04 2 2 2 C2.04125 3.0725 2.0825 4.145 2.125 5.25 C2 9 2 9 0 13 C0 8.71 0 4.42 0 0 Z " fill="#1F1F1C" transform="translate(202,255)"/>
<path d="M0 0 C0.66 0.99 1.32 1.98 2 3 C1.49210937 3.43570313 0.98421875 3.87140625 0.4609375 4.3203125 C-3.86759882 8.06522595 -8.00306944 11.90314618 -12 16 C-12.66 15.67 -13.32 15.34 -14 15 C-12.98679687 14.00419922 -12.98679687 14.00419922 -11.953125 12.98828125 C-11.06109375 12.10527344 -10.1690625 11.22226563 -9.25 10.3125 C-8.36828125 9.44238281 -7.4865625 8.57226562 -6.578125 7.67578125 C-4.21194702 5.21997532 -2.08107444 2.69858952 0 0 Z " fill="#252523" transform="translate(298,55)"/>
<path d="M0 0 C3.17218843 3.62535821 4.42902597 7.51150278 6 12 C4.11328125 11.77734375 4.11328125 11.77734375 2 11 C0.91796875 9.00390625 0.91796875 9.00390625 0.1875 6.5625 C-0.06644531 5.75941406 -0.32039063 4.95632813 -0.58203125 4.12890625 C-1 2 -1 2 0 0 Z " fill="#3D3C39" transform="translate(270,272)"/>
<path d="M0 0 C0.66 0.66 1.32 1.32 2 2 C-0.66666667 4.66666667 -3.33333333 7.33333333 -6 10 C-6.66 9.67 -7.32 9.34 -8 9 C-5.36 6.03 -2.72 3.06 0 0 Z " fill="#1C1C1A" transform="translate(247,110)"/>
<path d="M0 0 C0.66 0 1.32 0 2 0 C1.34 2.64 0.68 5.28 0 8 C-0.99 8 -1.98 8 -3 8 C-1.125 2.25 -1.125 2.25 0 0 Z " fill="#3F3E3C" transform="translate(254,271)"/>
<path d="M0 0 C1 3 1 3 0.0625 5.1875 C-0.4634375 6.0846875 -0.4634375 6.0846875 -1 7 C-1.99 7 -2.98 7 -4 7 C-2.92598892 4.08482708 -2.22189824 2.22189824 0 0 Z " fill="#211F20" transform="translate(240,265)"/>
<path d="M0 0 C1.5 1.25 1.5 1.25 3 3 C3 4.32 3 5.64 3 7 C2.34 7 1.68 7 1 7 C-1 4 -1 4 -0.625 1.8125 C-0.41875 1.214375 -0.2125 0.61625 0 0 Z " fill="#2F2E2C" transform="translate(240,270)"/>
<path d="M0 0 C1.32 0 2.64 0 4 0 C4.66 1.65 5.32 3.3 6 5 C5.01 5.33 4.02 5.66 3 6 C2.01 4.02 1.02 2.04 0 0 Z " fill="#3D3C39" transform="translate(228,255)"/>
</svg>
